# xmcd
#
# Track frame offsets: 
#        150
#        17002
#        29819
#        51305
#        70058
#        87495
#        104592
#        119720
#        141661
#        160721
#
# Disc length: 2396 seconds
#
# Revision: 0
# Processed by: cddbd v1.5.2PL0 Copyright (c) Steve Scherf et al.
# Submitted via: ExactAudioCopy v1.3
#
DISCID=97095a0a
DTITLE=Jamie Thyer - Jamie Thyer Meets The Dominators.. At The Dyed Ro
DTITLE=ots Of Blues Rock
DYEAR=2019
DGENRE=Blues Rock
TTITLE0=3d Jones
TTITLE1=Might-Have-Been
TTITLE2=Frigid Air
TTITLE3=My Own Company
TTITLE4=On My Way
TTITLE5=Wicked City
TTITLE6=Put Your Guitar Down
TTITLE7=Can You Hear?
TTITLE8=Rattletake Snail
TTITLE9=Rough Rider
EXTD=
EXTT0=
EXTT1=
EXTT2=
EXTT3=
EXTT4=
EXTT5=
EXTT6=
EXTT7=
EXTT8=
EXTT9=
PLAYORDER=
